<svg xmlns="http://www.w3.org/2000/svg" fill="none" viewBox="0 0 106 40" height="40" width="106">
<path fill="#262626" d="M38.8793 28.6522V18.1466C38.9775 18.4412 39.2478 19.3248 39.7146 20.773L43.0806 28.6522H46.1764L49.5424 20.773L50.3778 18.1466V28.6522H53.5226V11.4702H50.1075L44.6285 25.1176L39.1495 11.4702H35.7344V28.6522H38.8793Z"></path>
<path fill="#262626" d="M67.6084 22.2212C67.6084 20.4294 67.0433 18.9812 65.9377 17.8275C64.8321 16.6984 63.407 16.1339 61.6626 16.1339C59.869 16.1339 58.3457 16.723 57.1173 17.9257C55.8642 19.1285 55.25 20.6748 55.25 22.5648C55.25 24.4549 55.8642 25.9767 57.0927 27.1794C58.2966 28.3822 59.7708 28.9958 61.5152 28.9958C64.1933 28.9958 66.0851 27.8176 67.2399 25.4367L64.9303 24.1112C64.1933 25.6085 63.0631 26.3449 61.5643 26.3449C59.7216 26.3449 58.4194 25.1667 58.2229 23.3012H67.6084V22.2212ZM61.5643 18.4903C63.3087 18.4903 64.4635 19.4475 64.7583 21.043H58.2229C58.6897 19.5703 59.9673 18.4903 61.5643 18.4903Z"></path>
<path fill="#262626" d="M80.8315 20.3557C80.8315 17.803 79.1363 16.1339 76.5565 16.1339C74.812 16.1339 73.4361 16.8948 72.4288 18.4412V16.4775H69.3331V28.6522H72.4288V22.4667C72.4288 20.4294 73.6081 19.0303 75.2543 19.0303C76.9004 19.0303 77.7358 19.8894 77.7358 21.6321V28.6522H80.8315V20.3557Z"></path>
<path fill="#262626" d="M83.7636 18.9812V25.1176C83.7636 27.6949 85.0657 28.9958 87.6701 28.9958C88.4317 28.9958 89.1197 28.8731 89.7339 28.6522L89.4391 26.0994C89.1197 26.1976 88.7757 26.2467 88.4072 26.2467C87.3753 26.2467 86.8593 25.6821 86.8593 24.5285V18.9812H89.5128V16.4775H86.8593V13.1884H83.7636V16.4775H81.8717V18.9812H83.7636Z"></path>
<path fill="#262626" d="M101.855 17.8275C100.529 16.6984 98.9561 16.1339 97.1625 16.1339C95.369 16.1339 93.7965 16.6984 92.4943 17.8275C91.1676 18.9812 90.5042 20.5521 90.5042 22.5648C90.5042 24.5776 91.1676 26.1485 92.4943 27.2776C93.7965 28.4313 95.369 28.9958 97.1625 28.9958C98.9561 28.9958 100.529 28.4313 101.855 27.2776C103.157 26.1485 103.821 24.5776 103.821 22.5648C103.821 20.5521 103.157 18.9812 101.855 17.8275ZM94.7056 25.1176C93.9931 24.4794 93.6491 23.6203 93.6491 22.5648C93.6491 21.5094 93.9931 20.6503 94.7056 19.9876C95.3935 19.3494 96.2043 19.0303 97.1625 19.0303C98.1207 19.0303 98.9315 19.3494 99.644 19.9876C100.332 20.6503 100.676 21.5094 100.676 22.5648C100.676 23.6203 100.332 24.4794 99.644 25.1176C98.9315 25.7803 98.1207 26.0994 97.1625 26.0994C96.2043 26.0994 95.3935 25.7803 94.7056 25.1176Z"></path>
<path fill="#667C71" d="M8.1619 28.7631H0L5.8225 11.624L12.2812 16.6227L8.1619 28.7631Z"></path>
<path fill="#BDCCBE" d="M13.9629 11.6299L12.2793 16.6253L18.7066 21.6006L16.2541 28.761H24.3795L26.8558 21.5939L13.9629 11.6299Z"></path>
</svg>
